PathFileType	4	(X/Y/Z)	s03c0101.trc
DataRate	CameraRate	NumFrames	NumMarkers	Units	OrigDataRate	OrigDataStartFrame	OrigNumFrames
200	200	4	52	mm	200	500	2000
Frame#	Time	racr			lacr			c7			jug			rlel			rdr			llel			ldr			s2			lic			ric			lasi			rasi			rpsi			lpsi			rgt			lgt			rth1			rth2			rth3			rth4			rlfc			rmfc			rsh1			rsh2			rsh3			rsh4			rlmal			rmmal			rcal			rtoe			rmt5			rmt1			lth1			lth2			lth4			lth3			llfc			lmfc			lsh1			lsh2			lsh3			lsh4			llmal			lmmal			lcal			ltoe			lmt1			lmt5			SBIKE			LBIKE			RBIKE			
		X1	Y1	Z1	X2	Y2	Z2	X3	Y3	Z3	X4	Y4	Z4	X5	Y5	Z5	X6	Y6	Z6	X7	Y7	Z7	X8	Y8	Z8	X9	Y9	Z9	X10	Y10	Z10	X11	Y11	Z11	X12	Y12	Z12	X13	Y13	Z13	X14	Y14	Z14	X15	Y15	Z15	X16	Y16	Z16	X17	Y17	Z17	X18	Y18	Z18	X19	Y19	Z19	X20	Y20	Z20	X21	Y21	Z21	X22	Y22	Z22	X23	Y23	Z23	X24	Y24	Z24	X25	Y25	Z25	X26	Y26	Z26	X27	Y27	Z27	X28	Y28	Z28	X29	Y29	Z29	X30	Y30	Z30	X31	Y31	Z31	X32	Y32	Z32	X33	Y33	Z33	X34	Y34	Z34	X35	Y35	Z35	X36	Y36	Z36	X37	Y37	Z37	X38	Y38	Z38	X39	Y39	Z39	X40	Y40	Z40	X41	Y41	Z41	X42	Y42	Z42	X43	Y43	Z43	X44	Y44	Z44	X45	Y45	Z45	X46	Y46	Z46	X47	Y47	Z47	X48	Y48	Z48	X49	Y49	Z49	X50	Y50	Z50	X51	Y51	Z51	X52	Y52	Z52	
500	2.5000	448.821256	1420.319803	-78.768503	482.714922	1421.860585	-378.398978	389.581636	1504.444965	-238.169808	414.498779	1330.172948	-232.664798	498.386829	1153.005550	9.006213	727.322570	963.938426	-47.277724	554.246217	1160.756725	-466.620886	749.384558	925.996303	-426.849397	-116.542025	1203.278333	-263.257825	60.667439	1230.968817	-434.189126	30.053566	1257.092653	-70.556592	80.382647	1164.900476	-394.392626	72.910705	1196.096714	-113.751582	-97.390371	1258.947015	-223.268955	-86.793835	1254.340444	-303.992726	2.292206	1160.174770	-58.026098	13.276305	1117.568812	-455.128183	124.774275	1049.501403	-32.613437	209.877050	1023.540346	-32.111355	271.314045	963.265532	-36.738603	228.493573	1054.084148	-43.621540	369.664466	872.723261	-63.779947	377.733357	860.260353	-186.224357	334.740926	706.045276	-43.554630	334.190750	618.078681	-59.657370	290.409163	541.807833	-62.096773	363.496355	613.507376	-85.445850	251.079833	415.289373	-79.217400	271.191645	430.188994	-169.651555	199.034824	349.939112	-120.592080	499.053304	435.320097	-109.215979	386.332705	386.894574	-42.922173	409.749310	409.370025	-156.737661	120.438337	1015.334861	-481.145271	194.744404	972.221655	-491.490802	220.816130	996.250820	-482.123558	238.772217	894.528539	-496.031315	329.396873	800.965944	-493.189926	340.938864	787.356584	-366.123223	231.520171	653.765744	-492.655975	212.768571	576.186063	-466.223791	150.683442	511.988929	-447.148038	243.807490	563.270935	-444.323559	85.369276	417.340969	-414.207104	128.840463	411.223654	-331.395321	21.228640	434.653889	-361.619439	208.478299	186.843464	-353.256356	148.728762	259.002436	-314.356004	116.362638	264.161700	-428.351624	-212.048709	945.077854	-233.397088	-7.355613	80.408672	-431.927509	-6.990702	80.749596	-31.589237	
501	2.5050	448.494159	1419.202192	-78.529488	482.104619	1420.997352	-378.589949	389.202829	1503.440075	-238.039228	414.370073	1328.878589	-232.753441	497.396057	1151.741916	9.192262	726.877020	963.631969	-47.425710	553.378100	1159.666657	-466.897800	748.986720	925.756644	-427.109085	-116.733219	1201.756304	-261.406561	59.601622	1229.567023	-433.078607	30.306954	1255.677709	-69.342927	78.694690	1163.372749	-391.993085	73.469324	1193.876669	-112.774549	-97.482221	1257.321922	-222.064153	-87.449043	1252.985439	-302.943141	2.276752	1157.794923	-57.050723	12.279849	1116.936828	-454.193978	123.538188	1045.288219	-32.060838	208.307114	1018.242797	-31.552437	268.912035	957.199183	-36.591066	227.426035	1048.618028	-42.477479	366.733055	866.158470	-64.014582	375.638409	854.817132	-186.723815	333.275782	699.020721	-43.368004	333.982201	611.089151	-59.373267	291.393491	534.142134	-62.037678	363.494823	606.853459	-84.950461	253.437160	406.967823	-79.083885	273.415382	422.090122	-169.461606	201.414435	341.664180	-120.254795	501.645115	427.423796	-109.322948	388.731362	378.807167	-42.778919	412.294873	401.414650	-156.769449	119.933180	1016.626347	-480.728208	194.676444	975.082110	-492.307643	220.484766	999.307366	-482.440603	239.951430	898.055515	-497.857498	331.581411	805.231843	-495.842698	343.428892	791.415127	-368.704492	232.645854	658.857026	-494.197582	212.834009	581.664969	-467.141822	150.008790	518.458839	-447.715559	243.846076	568.417056	-444.972931	83.256397	425.157972	-414.138990	126.967314	418.890831	-331.514278	19.198071	442.763411	-361.496823	205.526430	193.980221	-353.033306	146.077807	266.849064	-314.745449	113.727333	271.951149	-428.402426	-212.078937	945.007886	-233.375298	-7.373936	80.396981	-431.919639	-7.009122	80.746887	-31.588307	
502	2.5100	448.284735	1418.331236	-78.362817	481.660609	1420.239284	-378.854634	388.874607	1502.363481	-237.405090	414.326010	1327.719832	-232.844581	496.458240	1150.533615	9.481690	726.446219	963.381794	-47.539725	552.490982	1158.701753	-467.317279	748.522180	925.624855	-427.259092	-116.856199	1200.446886	-259.313186	58.561935	1228.415280	-431.895493	30.807578	1254.439411	-68.045499	77.968852	1162.527177	-391.119985	74.101066	1191.680771	-111.751238	-97.526607	1255.931894	-220.535955	-87.926654	1251.737209	-301.799872	2.526804	1155.598356	-56.084685	11.401597	1116.859219	-453.400613	122.452853	1040.898768	-31.507741	206.733597	1012.604765	-30.849287	266.458883	950.783270	-36.495002	226.377165	1042.865122	-41.306246	363.598490	859.388765	-64.268374	373.428067	848.722254	-186.711424	331.804607	691.859275	-43.130666	333.721221	603.863528	-59.032831	292.076277	526.405422	-61.834368	363.320254	600.005102	-84.502044	255.512599	398.818583	-78.978108	275.508869	414.026200	-169.262565	203.691015	333.566648	-120.028275	504.012237	419.216583	-109.450204	391.241142	370.669690	-42.798775	414.570402	393.259260	-156.669940	119.022282	1018.212672	-480.832338	194.392531	978.023150	-492.990425	219.836563	1002.526988	-482.775422	240.873180	901.772831	-499.687696	333.614684	809.795962	-498.511547	346.127371	795.674509	-371.182708	233.458265	664.288353	-495.761638	212.716450	587.397920	-467.966968	149.225159	525.095783	-448.227953	243.653860	574.114327	-446.403371	81.181311	433.161203	-413.991363	125.102331	426.850250	-331.509134	17.084087	450.801737	-361.217769	203.122223	201.737408	-352.901697	143.779465	274.572029	-314.115679	111.393856	279.962756	-428.368089	-212.086912	944.964629	-233.331894	-7.385934	80.384558	-431.926079	-7.017614	80.696849	-31.577573	
503	2.5150	448.282412	1417.411466	-78.325928	481.134391	1419.537505	-379.216209	388.869827	1501.549213	-237.890112	414.337000	1326.684919	-232.976289	495.472535	1149.404833	9.712324	726.061792	963.191871	-47.594868	551.404104	1157.852564	-467.918576	748.122118	925.616755	-427.462365	-116.928559	1199.387334	-256.859581	57.514839	1227.723251	-430.531711	31.547241	1253.183775	-66.682879	77.252353	1161.875873	-390.206608	74.803874	1189.520957	-110.685204	-97.543578	1254.769361	-218.684851	-88.312266	1250.854823	-300.261804	2.956331	1153.251762	-54.888652	10.366858	1117.093616	-452.542190	121.440257	1036.383563	-30.957706	205.242331	1006.774569	-30.297694	263.813325	944.186588	-36.454101	225.401936	1036.914664	-40.107803	360.351992	852.425661	-64.568557	370.881369	842.419123	-186.559166	330.234054	684.550646	-42.987336	333.347341	596.629730	-58.815134	292.723090	518.578323	-61.720777	362.930694	593.213495	-84.244491	257.395973	390.674739	-78.659403	277.434504	405.984717	-168.963609	205.937238	325.422234	-119.823343	506.132840	410.781209	-109.574976	393.539099	362.243292	-42.885979	416.578542	385.187293	-156.551639	117.945954	1019.925855	-480.850476	193.938491	981.186975	-493.631094	219.041941	1005.893339	-483.093805	241.604542	905.698877	-501.502698	335.535338	814.587076	-501.237379	348.876283	800.098942	-373.535936	234.052526	669.851320	-497.327319	212.260645	593.406756	-468.881986	148.185168	532.123090	-448.636015	243.362007	579.820796	-447.499081	79.149372	441.280603	-413.763117	118.418009	438.487868	-330.758725	15.046905	458.952966	-360.862102	201.053813	210.097910	-353.023289	141.868082	282.685717	-314.044466	109.332776	288.262621	-428.335240	-212.059336	944.937415	-233.199223	-7.391684	80.365530	-431.903570	-7.015092	80.674250	-31.572597	
